<?xml version="1.0" encoding="utf-8"?>
<!-- Generator: Adobe Illustrator 25.3.1, SVG Export Plug-In . SVG Version: 6.00 Build 0)  -->
<!DOCTYPE svg PUBLIC "-//W3C//DTD SVG 1.1//EN" "http://www.w3.org/Graphics/SVG/1.1/DTD/svg11.dtd" [
	<!ENTITY ns_extend "http://ns.adobe.com/Extensibility/1.0/">
	<!ENTITY ns_ai "http://ns.adobe.com/AdobeIllustrator/10.0/">
	<!ENTITY ns_graphs "http://ns.adobe.com/Graphs/1.0/">
	<!ENTITY ns_vars "http://ns.adobe.com/Variables/1.0/">
	<!ENTITY ns_imrep "http://ns.adobe.com/ImageReplacement/1.0/">
	<!ENTITY ns_sfw "http://ns.adobe.com/SaveForWeb/1.0/">
	<!ENTITY ns_custom "http://ns.adobe.com/GenericCustomNamespace/1.0/">
	<!ENTITY ns_adobe_xpath "http://ns.adobe.com/XPath/1.0/">
]>
<svg version="1.1" id="Layer_1" xmlns:x="&ns_extend;" xmlns:i="&ns_ai;" xmlns:graph="&ns_graphs;"
	 xmlns="http://www.w3.org/2000/svg" xmlns:xlink="http://www.w3.org/1999/xlink" x="0px" y="0px" viewBox="0 0 56.7 56.7"
	 style="enable-background:new 0 0 56.7 56.7;" xml:space="preserve">
<metadata>
	<sfw  xmlns="&ns_sfw;">
		<slices></slices>
		<sliceSourceBounds  bottomLeftOrigin="true" height="48.2" width="46.1" x="6.2" y="4.2"></sliceSourceBounds>
	</sfw>
</metadata>
<path d="M25.5,28.4v24.1H16H6.6L6.4,39.7c-0.1-7-0.2-17.9-0.2-24.1V4.2h9.7h9.7V28.4z"/>
<path d="M52.2,28.4v24.1l-14.3,0c-9.1,0-13.9-0.1-13.2-0.3c1.8-0.4,4.2-1.5,5.8-2.8c5.2-4.2,6.1-10.6,2.1-15.7
	c-2-2.5-4.7-4.1-8.3-4.9l-1.5-0.3l1.9-0.5c2.6-0.7,4-1.4,5.7-2.7c2-1.6,3-2.9,3.9-5.1c1.4-3.5,0.8-7.2-1.7-10.5
	c-1.9-2.5-4.7-4.1-8.4-5c-1.3-0.3,0.4-0.3,13.2-0.4l14.7,0V28.4z"/>
</svg>
