<?xml version="1.0" encoding="utf-8"?>
<!-- Generator: Adobe Illustrator 26.4.1, SVG Export Plug-In . SVG Version: 6.00 Build 0)  -->
<svg version="1.1" id="Capa_1" xmlns="http://www.w3.org/2000/svg" xmlns:xlink="http://www.w3.org/1999/xlink" x="0px" y="0px"
	 viewBox="0 0 576 512" style="enable-background:new 0 0 576 512;" xml:space="preserve">
<style type="text/css">
	.st0{clip-path:url(#SVGID_00000142892338125774688880000008668366522784070845_);}
	.st1{clip-path:url(#SVGID_00000049933711548230013970000002015216565601094577_);}
</style>
<symbol  id="_x34_1268" viewBox="-16 -11.5 32 23">
	<g>
		<path d="M11.9-11.5h-23.8c-2.3,0-4.1,1.8-4.1,4.1V7.4c0,2.3,1.8,4.1,4.1,4.1h23.8c2.3,0,4.1-1.8,4.1-4.1V-7.4
			C16-9.7,14.2-11.5,11.9-11.5z M14,7.4c0,1.2-0.9,2.1-2.1,2.1h-23.8c-1.2,0-2.1-0.9-2.1-2.1V-7.4c0-1.2,0.9-2.1,2.1-2.1h23.8
			c1.2,0,2.1,0.9,2.1,2.1V7.4z M-12,3.5h1.3v-8H-12V3.5z M-5.7-0.8l-2.1-3.7h-1.4v8h1.3v-5.6l2.1,3.7l0,0l2.1-3.7v5.7h1.3v-8h-1.4
			L-5.7-0.8z M1.8-4.5h-2.4v8h2.4c2.3,0,3.8-1.6,3.8-4v-0.1C5.5-2.9,4-4.5,1.8-4.5z M4.2-0.5c0,1.7-1,2.8-2.4,2.8H0.6v-5.6h1.1
			C3.2-3.3,4.2-2.2,4.2-0.5L4.2-0.5z M9.6-2.7c-0.9,0-1.4,0.5-1.8,1.1v-3.2H6.6v8.3h1.3V2.6c0.4,0.5,0.9,1,1.8,1
			c1.2,0,2.4-1,2.4-3.1V0.4C12-1.7,10.9-2.7,9.6-2.7z M10.7,0.5c0,1.2-0.6,1.9-1.4,1.9c-0.8,0-1.4-0.8-1.4-1.9V0.4
			c0-1.2,0.7-1.9,1.4-1.9S10.7-0.8,10.7,0.5L10.7,0.5z"/>
	</g>
</symbol>
<g>
	<g>
		<g>
			<defs>
				<rect id="SVGID_1_" x="20.2" y="64" width="540.9" height="388.8"/>
			</defs>
			<clipPath id="SVGID_00000155144378577578423990000003217543402552050101_">
				<use xlink:href="#SVGID_1_"  style="overflow:visible;"/>
			</clipPath>
			<g style="clip-path:url(#SVGID_00000155144378577578423990000003217543402552050101_);">
				<g>
					<g>
						<defs>
							<rect id="SVGID_00000173857188775000444010000012952471888260528810_" x="20.2" y="64" width="540.9" height="388.8"/>
						</defs>
						<clipPath id="SVGID_00000049917541947305460650000000645859609414937746_">
							<use xlink:href="#SVGID_00000173857188775000444010000012952471888260528810_"  style="overflow:visible;"/>
						</clipPath>
						<g style="clip-path:url(#SVGID_00000049917541947305460650000000645859609414937746_);">
							<g>
								<defs>
									<rect id="SVGID_00000181790790749596264430000003946703206903742875_" x="20.2" y="64" width="540.9" height="388.8"/>
								</defs>
								<clipPath id="SVGID_00000162322458418834216490000008987715038772026265_">
									<use xlink:href="#SVGID_00000181790790749596264430000003946703206903742875_"  style="overflow:visible;"/>
								</clipPath>
								<g style="clip-path:url(#SVGID_00000162322458418834216490000008987715038772026265_);">
									
										<use xlink:href="#_x34_1268"  width="32" height="23" x="-16" y="-11.5" transform="matrix(16.9038 0 0 16.9038 290.6392 258.3937)" style="overflow:visible;"/>
								</g>
							</g>
						</g>
					</g>
				</g>
			</g>
		</g>
	</g>
</g>
</svg>
